<svg width="457" height="402" viewBox="0 0 457 402" fill="none" xmlns="http://www.w3.org/2000/svg">
<path d="M327 0.199951C362.4 0.199951 393.199 25.2999 400.3 59.9998L400.5 61.9998V67.4998H380.4V63.1003C374.8 38.2004 352.5 20.3006 326.9 20.3005H75.4998C45.2998 20.3006 20.7 44.9004 20.7 75.1003V326.5C20.7 356.7 45.2998 381.3 75.4998 381.301H326.9C357.1 381.3 381.7 356.7 381.7 326.5V220.1H401.8V326.5C401.8 367.8 368.2 401.4 326.9 401.4H75.6003C34.3003 401.4 0.699951 367.8 0.699951 326.5V75.1003C0.699951 33.8003 34.3003 0.199951 75.6003 0.199951H327Z" fill="white"/>
<path fill-rule="evenodd" clip-rule="evenodd" d="M199.3 218C229.2 218 248.6 240 248.6 272.2V277.9H175.5C177.1 290.3 187.1 300.7 203.8 300.7C220.5 300.7 223.8 297 230.1 290.9L241.5 307.6C231.7 316.6 216.3 321.2 201 321.2C171.1 321.2 148.5 301 148.5 269.5H148.4C148.4 241 169.4 218 199.3 218ZM199.3 238.5C183.2 238.5 176.3 250.501 175.1 260.301H223.6C223 250.901 216.5 238.5 199.4 238.5H199.3Z" fill="white"/>
<path d="M144.5 243.1H117V318.801H90.9998V243.1H63.4998V220.5H144.5V243.1Z" fill="white"/>
<path d="M299.7 250.7L319.9 220.4H348.8L315.8 268.301L351 318.801H322.1L299.7 285.6L277.1 318.801H248.4L283.2 268.301L250.4 220.4H279.3L299.7 250.7Z" fill="white"/>
<path fill-rule="evenodd" clip-rule="evenodd" d="M204.5 198.4H171.6L163.3 175.4H105.1L96.4998 198.4H63.4998L116 62.6003H152.2L204.5 198.4ZM112.9 149.9H155.3L134.1 91.4998L112.9 149.9Z" fill="white"/>
<path d="M298.5 198.4H274.1V121.4H253.3L252.5 130.4C251.5 141.3 249.9 151 247.6 159.5C245.3 168.1 242.4 175.3 238.8 181.4C235.3 187.4 231.2 190.8 226.5 193.9C223.9 195.6 219.4 198.4 213.6 198.4L204.5 175.5C207.9 174.3 210.8 172.3 213.3 169.7C215.699 167.1 217.8 163.5 219.5 159.1C221.2 154.7 222.6 149.3 223.6 143C224.6 136.7 225.3 129.3 225.7 120.9L226.7 98.4998H298.5V198.4Z" fill="white"/>
<path d="M415.8 157.3L446.3 204.3C447.3 205.9 446.9 208 445.5 209.2C440.3 212.3 435.2 216.3 429.9 219.3C427.5 220.6 425.6 220.3 424.1 218L394.9 170.6C394.7 170.6 394.7 170.6 394.6 170.8C394.4 171 394 171.5 393.8 171.7C386 181.1 378.8 191 371 200.5C368.9 202.9 365 201.8 364.4 198.7L346.2 73.6C346 70.4 349.6 68.3999 352.2 70.1999L454.2 140.9C457.5 142.6 457.8 147.1 454 148.4L415.9 157.4L415.8 157.3Z" fill="#7DD30D"/>
</svg>
