<svg xmlns="http://www.w3.org/2000/svg" fill="none" viewBox="0 0 24 24" stroke-width="1.5" stroke="currentColor">
  <path stroke-linecap="round" stroke-linejoin="round" d="M15.59 14.37a6 6 0 0 1-5.84 7.38v-4.8m5.84-2.58a14.98 14.98 0 0 0 6.16-12.12A14.98 14.98 0 0 0 9.631 8.41m5.96 5.96a14.926 14.926 0 0 1-5.841 2.58m-.119-8.54a6 6 0 0 0-7.381 5.84h4.8m2.581-5.84a14.927 14.927 0 0 0-2.58 5.84m2.58-5.84a14.98 14.98 0 0 1 12.12 6.16M9.75 18.75v.008c0 .414-.336.75-.75.75h-.008a.75.75 0 0 1-.75-.75v-.008c0-.414.336-.75.75-.75h.008c.414 0 .75.336.75.75Z" />
</svg>
