<svg xmlns="http://www.w3.org/2000/svg" fill="none" viewBox="0 0 24 24" stroke-width="1.5" stroke="currentColor">
  <path stroke-linecap="round" stroke-linejoin="round" d="M9.75 3.104v5.714a2.25 2.25 0 0 1-.659 1.591L5 14.5M9.75 3.104c-.251.023-.501.05-.75.082m.75-.082a24.301 24.301 0 0 1 4.5 0m0 0v5.714c0 .597.237 1.17.659 1.591L19.8 15.3M14.25 3.104c.251.023.501.05.75.082M19.8 15.3l-1.57.393A9.065 9.065 0 0 1 12 16.5a9.065 9.065 0 0 1-6.23-.693L5 15.5l.8-.3m13.8.3c-.028.194-.4.481-.65.758A14.084 14.084 0 0 1 12 21.75a14.085 14.085 0 0 1-6.95-1.84M5.7 19.5c.028-.194.4-.481.65-.758A14.084 14.084 0 0 0 12 21.75a14.085 14.085 0 0 0 6.95-1.84m-1.6.484c1.616-.421 3.15-.956 4.55-1.549M5.7 19.5c-1.616-.421-3.15-.956-4.55-1.549" />
</svg>
