<svg xmlns="http://www.w3.org/2000/svg" fill="none" viewBox="0 0 24 24" stroke-width="1.5" stroke="currentColor">
  <path stroke-linecap="round" stroke-linejoin="round" d="M2.25 18.75a60.07 60.07 0 0 1 15.797 2.101c.727.198 1.453-.342 1.453-1.096V18.75M3.75 4.5v.75A.75.75 0 0 1 3 6h-.75m0 0v-.375c0-.621.504-1.125 1.125-1.125H15M3.75 6h-.375a1.125 1.125 0 0 0-1.125 1.125v9.75c0 .621.504 1.125 1.125 1.125h.375m1.5-1.875a1.875 1.875 0 0 1 1.875-1.875h15m-1.5 1.875v-.375A1.875 1.875 0 0 0 19.125 2.25H3.375A1.875 1.875 0 0 0 1.5 4.125v9.75A1.875 1.875 0 0 0 3.375 15.75h15.75A1.875 1.875 0 0 0 20.25 13.5V4.125A1.875 1.875 0 0 0 19.125 2.25H3.375Z" />
</svg>
