<svg viewBox="0 0 232 123" fill="none" xmlns="http://www.w3.org/2000/svg">
<g clip-path="url(#clip0_55_4187)">
<path d="M123.323 106.505C178.777 101.622 221.747 75.1416 219.301 47.36C216.854 19.5784 169.918 1.01542 114.464 5.89842C59.0113 10.7814 16.0407 37.2613 18.4871 65.0429C20.9334 92.8245 67.8702 111.388 123.323 106.505Z" fill="white"/>
<path d="M215.5 19.9C216 19.9 216.4 20 216.9 20.3C217.3 20.5 217.7 20.9 217.9 21.3C218.2 21.8 218.3 22.2 218.3 22.7C218.3 23.2 218.2 23.7 217.9 24.1C217.7 24.5 217.3 24.9 216.9 25.1C216.5 25.3 216 25.5 215.5 25.5C215 25.5 214.5 25.4 214.1 25.1C213.7 24.9 213.3 24.5 213.1 24.1C212.9 23.7 212.7 23.2 212.7 22.7C212.7 22.2 212.8 21.7 213.1 21.3C213.4 20.9 213.7 20.5 214.2 20.3C214.6 20 215.1 19.9 215.5 19.9ZM215.5 20.1C215.1 20.1 214.7 20.2 214.2 20.4C213.7 20.6 213.5 20.9 213.2 21.3C213 21.7 212.9 22.1 212.9 22.6C212.9 23 213 23.5 213.2 23.9C213.4 24.3 213.7 24.6 214.1 24.8C214.5 25 214.9 25.1 215.4 25.1C215.8 25.1 216.3 25 216.7 24.8C217.1 24.6 217.4 24.3 217.6 23.9C217.8 23.5 217.9 23.1 217.9 22.6C217.9 22.2 217.8 21.7 217.6 21.3C217.4 20.9 217.1 20.6 216.6 20.4C216.1 20.2 216 20.1 215.5 20.1ZM214 20.9H215.5C215.9 20.9 216.2 21 216.4 21.2C216.6 21.4 216.7 21.6 216.7 21.8C216.7 22 216.6 22.2 216.5 22.3C216.4 22.5 216.1 22.6 215.8 22.6L216.6 23.8C216.7 23.9 216.8 24 216.9 24.1C217 24.1 217 24.2 217.1 24.2V24.3H216.4L215.2 22.7H214.9V24C214.9 24.1 215 24.2 215 24.2C215.1 24.2 215.2 24.3 215.4 24.3V24.4H213.9V24.3C214 24.3 214.1 24.3 214.2 24.3C214.3 24.3 214.3 24.2 214.3 24.2C214.3 24.2 214.3 24 214.3 23.8V21.7C214.3 21.5 214.3 21.4 214.3 21.4C214.3 21.3 214.2 21.3 214.2 21.3C214.2 21.3 214.1 21.3 213.9 21.3V20.9H214ZM214.9 22.6C215.2 22.6 215.4 22.6 215.6 22.5C215.7 22.4 215.9 22.4 215.9 22.2C216 22.1 216 22 216 21.8C216 21.6 215.9 21.4 215.8 21.3C215.7 21.2 215.5 21.1 215.2 21.1C215.1 21.1 215 21.1 214.9 21.2V22.6Z" fill="#003A70"/>
<path d="M220.2 45.9C224.1 77.3 177.9 108.8 117 116.3C56.1 123.8 4.10001 104.4 0.200011 73C-3.69999 41.6 42.2 10.1 103.1 2.59998C164 -4.90002 216.4 14.5 220.2 45.9ZM114.5 5.89998C59 10.8 16 37.3 18.5 65.1C21 92.9 67.9 111.5 123.4 106.6C178.9 101.7 221.9 75.2 219.4 47.4C216.9 19.5 170 0.999981 114.5 5.89998Z" fill="#00953B"/>
<path d="M218.9 73.2C225.307 73.2 230.5 68.0065 230.5 61.6C230.5 55.1935 225.307 50 218.9 50C212.494 50 207.3 55.1935 207.3 61.6C207.3 68.0065 212.494 73.2 218.9 73.2Z" fill="#D7282F"/>
<path d="M59.3 51.8H59.7C61 51.9 61.6 52.3 61.8 52.5C62 52.7 62.3 53.4 62.3 55.5V63.9001C62.3 65.9001 62.1 67.4001 61.6 68.3001C60.8 69.9001 59.2 70.7 56.7 70.7C54.5 70.7 53 69.9001 52.2 68.4001C51.8 67.5001 51.6 66.3 51.6 64.6V54.2001C51.6 52.8001 51.9 52.4 52 52.3C52.2 52.2 52.7 51.9 54.1 51.8H54.5V50.3H44.4V51.8H44.8C46.3 51.9 46.7 52.2 46.9 52.3C47 52.4 47.3 52.8001 47.3 54.2001V64.3001C47.3 66.4001 47.7 68.1001 48.4 69.4001C49.8 71.8001 52.3 73.1 56 73.1C59.7 73.1 62.3 71.9001 63.6 69.4001C64.3 68.1001 64.7 66.2001 64.7 63.9001V55.5C64.7 53.4 65 52.8 65.2 52.6C65.4 52.3 65.9 52.0001 67.3 51.9001H67.7V50.4001H59.2V51.8H59.3Z" fill="#003A70"/>
<path d="M38.3 57.2001L34.8 55C33.5 54.2 32.6 53.5 32 52.8C31.4 52.2 31.2 51.4 31.2 50.5C31.2 49.5 31.5 48.7001 32.2 48.2001C32.9 47.6001 33.8 47.3 34.8 47.3C36.1 47.3 37.4 47.8001 38.8 48.7001C40.1 49.6001 41.1 51.4 41.7 53.8L41.8 54.2001H43.7L42.7 44.8H41V45.1C40.9 45.5 40.8 45.7001 40.6 45.9001C40.5 46.0001 40.3 46.1 40 46.1C40 46.1 39.6 46 37.9 45.5C36.6 45 35.4 44.8 34.5 44.8C32.2 44.8 30.3 45.5001 28.8 46.9001C27.4 48.3001 26.7 50.1 26.7 52.3C26.7 53.9 27.3 55.4 28.5 56.8C29.1 57.5 30 58.2001 31 58.9001L34.4 61C36.3 62.2 37.6 63.1001 38.2 63.7001C39.1 64.6001 39.5 65.6001 39.5 66.8001C39.5 68.1001 39.1 69.1001 38.3 69.8001C37.5 70.5001 36.5 70.9001 35.3 70.9001C33.1 70.9001 31.3 70.0001 29.8 68.3001C28.9 67.3001 28.2 65.9 27.5 64.2L27.4 63.9001H25.6L26.9 73.4001H28.6L28.7 73C28.7 72.7 28.8 72.5 29 72.2C29.1 72.1 29.3 72 29.5 72C29.5 72 29.9 72 31.7 72.7C33.1 73.2 34.5 73.4001 35.7 73.4001C38.3 73.4001 40.4 72.6 42.1 71.2C43.8 69.7 44.6 67.8 44.6 65.6C44.6 63.9 44.1 62.5 43.2 61.3C42.1 59.8 40.6 58.5001 38.3 57.2001Z" fill="#003A70"/>
<path d="M76.4 63.3001C76.9 63.3001 77.4 63.3001 77.8 63.3001C80.3 63.3001 82.4 62.8001 84.1 61.7001C85.9 60.6001 86.7 58.9001 86.7 56.5001C86.7 54.6001 85.9 53.1001 84.3 51.9001C82.8 50.8001 80.6 50.2001 77.7 50.2001H68.7V51.7001H69.1C70.5 51.8001 70.9 52.1001 71 52.2001C71.1 52.3001 71.4 52.8001 71.4 54.1001V68.1001C71.4 69.7001 71.2 70.2001 71.1 70.4001C71 70.5001 70.6 70.8001 69.1 71.0001H68.7V72.5001H78.7V71.0001H78.3C76.7 70.9001 76.2 70.6001 76.1 70.5001C76 70.4001 75.7 70.0001 75.7 68.6001V63.2001C75.9 63.2001 76.1 63.3001 76.4 63.3001ZM75.7 53.0001C75.7 52.6001 75.8 52.5001 75.8 52.5001C75.8 52.5001 76 52.4001 76.7 52.4001C78 52.4001 79.1 52.6001 80 53.0001C81.5 53.7001 82.3 54.9001 82.3 56.6001C82.3 58.5001 81.6 59.8001 80.2 60.5001C79.4 60.9001 78.3 61.1001 76.9 61.1001C76.7 61.1001 76.6 61.1001 76.4 61.1001C76.3 61.1001 76 61.1001 75.7 61.0001V53.0001Z" fill="#003A70"/>
<path d="M103.2 66.2001L103.1 66.5001C102.3 68.2001 101.5 69.3001 100.5 69.7001C99.5 70.1001 98 70.4001 95.8 70.4001C93.2 70.4001 92.5 70.3001 92.3 70.2001C92.2 70.2001 92 70.1001 92 69.5001V62.0001H96.5C98.1 62.0001 98.6 62.3001 98.8 62.5001C99 62.7001 99.3 63.3001 99.6 64.8001L99.7 65.2001H101.3V56.8001H99.7L99.6 57.2001C99.3 58.6001 99 59.2001 98.8 59.4001C98.6 59.6001 98.1 59.9001 96.5 59.9001H92V53.0001C92 52.6001 92.1 52.5001 92 52.5001C92 52.5001 92.2 52.4001 92.5 52.4001H96.9C99.2 52.4001 100 52.7001 100.3 52.9001C100.6 53.1001 101 53.8001 101.4 55.4001L101.5 55.8001H103.2L103.1 50.2001H85V51.7001H85.4C86.8 51.8001 87.3 52.1001 87.4 52.2001C87.5 52.3001 87.8 52.8001 87.8 54.1001V68.5001C87.8 70.0001 87.5 70.3001 87.4 70.4001C87.2 70.5001 86.8 70.8001 85.3 70.9001H84.9V72.4001H103.3L105 66.0001H103.2V66.2001Z" fill="#003A70"/>
<path d="M124.2 70.7001C123.8 70.5001 123.5 70.2001 123.1 69.7001L116.9 62.1001C118.4 61.8001 119.7 61.2001 120.6 60.4001C121.8 59.4001 122.4 58.1001 122.4 56.3001C122.4 53.7001 121.1 51.9001 118.5 50.9001C117.2 50.4001 115.6 50.2001 113.7 50.2001H104.2V51.7001H104.6C106 51.8001 106.4 52.1001 106.6 52.2001C106.7 52.3001 107 52.8001 107 54.1001V68.1001C107 69.8001 106.8 70.2001 106.7 70.4001C106.6 70.5001 106.2 70.8001 104.7 71.0001H104.3V72.5001H114.3V71.0001H113.9C112.4 70.9001 112 70.6001 111.8 70.5001C111.7 70.4001 111.4 70.0001 111.4 68.6001V62.7001H112.1L120.2 72.7001H126.1V71.2001H125.7C125.1 71.0001 124.6 70.9001 124.2 70.7001ZM111.3 60.5001V53.0001C111.3 52.6001 111.4 52.5001 111.4 52.5001C111.4 52.5001 111.7 52.4001 112.8 52.4001C114.1 52.4001 115.1 52.6001 115.9 52.9001C117.3 53.5001 117.9 54.6001 117.9 56.3001C117.9 58.0001 117.2 59.2001 115.6 59.8001C114.8 60.2001 113.3 60.5001 111.3 60.5001Z" fill="#003A70"/>
<path d="M141.4 65.7001L134.3 50.2001H127.1V51.7001H127.6C129.2 51.8001 129.7 52.1001 129.8 52.2001C130 52.3001 130.2 52.8001 130.2 54.1001V67.3001C130.2 69.4001 129.9 70.0001 129.7 70.3001C129.5 70.5001 129 70.9001 127.4 71.0001H127V72.5001H135.6V71.0001H135.2C133.8 70.9001 133.4 70.6001 133.2 70.4001C132.9 70.1001 132.6 69.3001 132.6 67.3001V56.7001L140 72.7001H141.1L148.6 56.0001V68.3001C148.6 70.0001 148.3 70.5001 148.2 70.6001C148.1 70.7001 147.7 71.0001 146.1 71.1001H145.7V72.6001H155.7V71.1001H155.3C153.9 71.0001 153.4 70.7001 153.3 70.6001C153.2 70.5001 152.9 70.1001 152.9 68.7001V54.2001C152.9 52.9001 153.1 52.4001 153.3 52.3001C153.4 52.2001 153.9 51.9001 155.3 51.8001H155.7V50.3001H148.5L141.4 65.7001Z" fill="#003A70"/>
<path d="M164.4 70.6C164.3 70.5 164 70.2 164 68.7V54.2001C164 52.8001 164.3 52.4 164.4 52.3C164.6 52.1 165.1 51.9 166.7 51.8H167.2V50.3H156.7V51.8H157.2C158.8 51.9 159.3 52.1 159.5 52.3C159.6 52.4 159.9 52.8001 159.9 54.2001V68.6C159.9 70.1 159.6 70.5 159.5 70.5C159.3 70.6 158.8 70.9 157.2 71H156.8V72.5H167.3V71H166.9C165.1 71 164.5 70.7 164.4 70.6Z" fill="#003A70"/>
<path d="M184.3 67.6C183.4 68.5 182.5 69.2 181.7 69.6C180.4 70.4 178.9 70.7 177.3 70.7C175.1 70.7 173.3 69.9001 171.9 68.3001C170.5 66.7001 169.7 64.5001 169.7 61.7001C169.7 58.7001 170.4 56.3 171.8 54.6C173.2 52.9 174.9 52.1 177 52.1C179.1 52.1 180.7 52.9001 182 54.4001C182.7 55.2001 183.2 56.4001 183.6 57.7001L183.7 58H185.3L185 49.8H183.5L183.4 50.1C183.3 50.3 183.2 50.5 183 50.6C182.8 50.7 182.6 50.8 182.4 50.8C182.3 50.8 182 50.7 180.4 50.3C179.1 49.9 177.9 49.8 176.7 49.8C173.2 49.8 170.3 51 168.2 53.3C166.1 55.5 165.1 58.3 165.1 61.6C165.1 64.8 166.1 67.5 168.1 69.6C170.2 71.9 173.1 73.1 176.7 73.1C178.9 73.1 181 72.5001 182.9 71.3001C184 70.6001 184.9 69.7001 185.7 68.8001L186 68.5L184.8 67.3001L184.3 67.6Z" fill="#003A70"/>
<path d="M207.3 71.1001C206.7 71.0001 206.3 70.9001 205.9 70.7001C205.5 70.5001 205.2 70.2001 204.8 69.7001L198.6 62.1001C200.1 61.8001 201.4 61.2001 202.3 60.4001C203.5 59.4001 204.1 58.1001 204.1 56.3001C204.1 53.7001 202.8 51.9001 200.2 50.9001C198.9 50.4001 197.3 50.2001 195.4 50.2001H186V51.7001H186.4C187.8 51.8001 188.2 52.1001 188.4 52.2001C188.5 52.3001 188.8 52.8001 188.8 54.1001V68.1001C188.8 69.8001 188.6 70.2001 188.5 70.4001C188.4 70.5001 188 70.8001 186.5 71.0001H186.1V72.5001H196.1V71.0001H195.7C194.2 70.9001 193.8 70.6001 193.6 70.5001C193.5 70.4001 193.2 70.0001 193.2 68.6001V62.7001H193.9L202 72.7001H207.9V71.2001L207.3 71.1001ZM193 60.5001V53.0001C193 52.6001 193.1 52.5001 193.1 52.5001C193.1 52.5001 193.4 52.4001 194.5 52.4001C195.8 52.4001 196.8 52.6001 197.6 52.9001C199 53.5001 199.6 54.6001 199.6 56.3001C199.6 58.0001 198.9 59.2001 197.3 59.8001C196.5 60.2001 195 60.5001 193 60.5001Z" fill="#003A70"/>
</g>
<defs>
<clipPath id="clip0_55_4187">
<rect width="231.7" height="122.9" fill="white"/>
</clipPath>
</defs>
</svg>
